<svg width="33" height="32" viewBox="0 0 33 32" fill="none" xmlns="http://www.w3.org/2000/svg">
<path d="M32.1889 0H0.738281V32H32.1889V0Z" fill="#F16D7F"/>
<g clip-path="url(#clip0)">
<path d="M16.139 12.6816C14.0238 12.6816 12.3177 14.3849 12.3177 16.4966C12.3177 18.6083 14.0238 20.3117 16.139 20.3117C18.2541 20.3117 19.9602 18.6083 19.9602 16.4966C19.9602 14.3849 18.2541 12.6816 16.139 12.6816ZM16.139 18.9769C14.7721 18.9769 13.6547 17.8646 13.6547 16.4966C13.6547 15.1287 14.7688 14.0164 16.139 14.0164C17.5092 14.0164 18.6233 15.1287 18.6233 16.4966C18.6233 17.8646 17.5058 18.9769 16.139 18.9769ZM21.0078 12.5255C21.0078 13.0203 20.6087 13.4154 20.1165 13.4154C19.621 13.4154 19.2252 13.0169 19.2252 12.5255C19.2252 12.0341 19.6243 11.6357 20.1165 11.6357C20.6087 11.6357 21.0078 12.0341 21.0078 12.5255ZM23.5386 13.4287C23.4821 12.2367 23.2094 11.1808 22.3347 10.3109C21.4634 9.44097 20.4058 9.1687 19.2119 9.10894C17.9814 9.03921 14.2932 9.03921 13.0627 9.10894C11.8721 9.16538 10.8145 9.43765 9.93987 10.3076C9.06522 11.1775 8.79584 12.2333 8.73597 13.4253C8.66613 14.6539 8.66613 18.3361 8.73597 19.5646C8.79251 20.7566 9.06522 21.8124 9.93987 22.6824C10.8145 23.5523 11.8688 23.8246 13.0627 23.8843C14.2932 23.9541 17.9814 23.9541 19.2119 23.8843C20.4058 23.8279 21.4634 23.5556 22.3347 22.6824C23.2061 21.8124 23.4788 20.7566 23.5386 19.5646C23.6085 18.3361 23.6085 14.6572 23.5386 13.4287ZM21.949 20.8828C21.6895 21.5335 21.1874 22.0349 20.5322 22.2972C19.5511 22.6857 17.2231 22.596 16.139 22.596C15.0548 22.596 12.7235 22.6824 11.7457 22.2972C11.0939 22.0382 10.5917 21.5369 10.329 20.8828C9.93987 19.9033 10.0297 17.5791 10.0297 16.4966C10.0297 15.4142 9.9432 13.0867 10.329 12.1105C10.5884 11.4597 11.0906 10.9583 11.7457 10.696C12.7268 10.3076 15.0548 10.3972 16.139 10.3972C17.2231 10.3972 19.5545 10.3109 20.5322 10.696C21.184 10.955 21.6862 11.4564 21.949 12.1105C22.3381 13.09 22.2483 15.4142 22.2483 16.4966C22.2483 17.5791 22.3381 19.9066 21.949 20.8828Z" fill="white"/>
</g>
<defs>
<clipPath id="clip0">
<rect width="14.8991" height="17" fill="white" transform="translate(8.68555 8)"/>
</clipPath>
</defs>
</svg>
