<svg width="32" height="32" viewBox="0 0 32 32" fill="none" xmlns="http://www.w3.org/2000/svg">
<path d="M31.9252 0H0.474609V32H31.9252V0Z" fill="white"/>
<g clip-path="url(#clip0)">
<path d="M16.7403 8.20312C13.5556 8.20312 10.4082 10.3406 10.4082 13.8C10.4082 16 11.6374 17.25 12.3823 17.25C12.6896 17.25 12.8666 16.3875 12.8666 16.1438C12.8666 15.8531 12.1309 15.2344 12.1309 14.025C12.1309 11.5125 14.0305 9.73125 16.4889 9.73125C18.6027 9.73125 20.1671 10.9406 20.1671 13.1625C20.1671 14.8219 19.506 17.9344 17.3642 17.9344C16.5913 17.9344 15.9302 17.3719 15.9302 16.5656C15.9302 15.3844 16.7496 14.2406 16.7496 13.0219C16.7496 10.9531 13.835 11.3281 13.835 13.8281C13.835 14.3531 13.9002 14.9344 14.133 15.4125C13.7046 17.2688 12.8293 20.0344 12.8293 21.9469C12.8293 22.5375 12.9131 23.1188 12.969 23.7094C13.0745 23.8281 13.0218 23.8156 13.1832 23.7563C14.7476 21.6 14.6917 21.1781 15.3994 18.3562C15.7812 19.0875 16.7683 19.4812 17.5505 19.4812C20.8469 19.4812 22.3275 16.2469 22.3275 13.3313C22.3275 10.2281 19.6643 8.20312 16.7403 8.20312Z" fill="black"/>
</g>
<defs>
<clipPath id="clip0">
<rect width="11.9193" height="16" fill="white" transform="translate(10.4082 8)"/>
</clipPath>
</defs>
</svg>
