<svg width="32" height="32" viewBox="0 0 32 32" fill="none" xmlns="http://www.w3.org/2000/svg">
<path d="M31.6635 0H0.212891V32H31.6635V0Z" fill="white"/>
<g clip-path="url(#clip0)">
<path d="M22.417 12.7405C22.427 12.8826 22.427 13.0248 22.427 13.1669C22.427 17.5019 19.1498 22.4969 13.1599 22.4969C11.3145 22.4969 9.60022 21.9588 8.1582 21.0248C8.4204 21.0552 8.67247 21.0654 8.94475 21.0654C10.4674 21.0654 11.8691 20.5476 12.9884 19.6644C11.5565 19.6339 10.3565 18.6898 9.94305 17.3903C10.1447 17.4207 10.3464 17.441 10.5582 17.441C10.8506 17.441 11.1431 17.4004 11.4153 17.3294C9.92291 17.0248 8.80355 15.705 8.80355 14.1111V14.0705C9.23715 14.3141 9.74139 14.4664 10.2758 14.4867C9.39849 13.8979 8.82373 12.8928 8.82373 11.7557C8.82373 11.1466 8.98504 10.5882 9.26741 10.1009C10.8708 12.0908 13.2809 13.3902 15.9833 13.5324C15.9329 13.2887 15.9027 13.035 15.9027 12.7811C15.9027 10.974 17.3548 9.50195 19.1598 9.50195C20.0976 9.50195 20.9446 9.89789 21.5396 10.5375C22.2757 10.3954 22.9816 10.1212 23.6068 9.74561C23.3648 10.507 22.8505 11.1466 22.1749 11.5527C22.8304 11.4817 23.4657 11.2989 24.0505 11.0451C23.6069 11.6948 23.0522 12.2735 22.417 12.7405Z" fill="black"/>
</g>
<defs>
<clipPath id="clip0">
<rect width="15.8924" height="16" fill="white" transform="translate(8.1582 8)"/>
</clipPath>
</defs>
</svg>
